<svg width="32" height="32" viewBox="0 0 32 32" fill="none" xmlns="http://www.w3.org/2000/svg">
  <rect width="32" height="32" rx="16" fill="#006633"/>
  <path d="M8 12C8 10.8954 8.89543 10 10 10H22C23.1046 10 24 10.8954 24 12V20C24 21.1046 23.1046 22 22 22H10C8.89543 22 8 21.1046 8 20V12Z" fill="white"/>
  <circle cx="12" cy="14" r="1" fill="#006633"/>
  <circle cx="20" cy="14" r="1" fill="#006633"/>
  <path d="M12 18C12 17.4477 12.4477 17 13 17H19C19.5523 17 20 17.4477 20 18C20 18.5523 19.5523 19 19 19H13C12.4477 19 12 18.5523 12 18Z" fill="#006633"/>
  <path d="M6 8L8 10M26 8L24 10M6 24L8 22M26 24L24 22" stroke="#006633" stroke-width="1.5" stroke-linecap="round"/>
</svg>
